<?xml version="1.0" encoding="UTF-8"?>
<svg xmlns="http://www.w3.org/2000/svg" version="1.1" viewBox="0 0 239.5 79.6">
  <defs>
    <style>
      .cls-1 {
        fill: #fff;
      }

      .cls-2 {
        fill: #d7d7f4;
      }
    </style>
  </defs>
  <!-- Generator: Adobe Illustrator 28.7.1, SVG Export Plug-In . SVG Version: 1.2.0 Build 142)  -->
  <g>
    <g id="Layer_1">
      <g id="Layer_3">
        <path class="cls-2" d="M208.2,56.3c0,.6,0,1.2-.2,1.7-1.2,7.2-7.8,12-14.9,10.7-2.5-.5-4.8-1.7-6.5-3.4-2.7,3.1-6.9,4.6-11.2,3.8-1.1-.2-2.1-.6-3-1-2.7,2.3-6.3,3.4-10,2.7-6.4-1.2-10.8-7.2-10.2-13.7-2.5-1.7-3.9-4.8-3.4-8,.4-2.4,1.8-4.3,3.7-5.4-1.3,1-2.2,2.5-2.6,4.2-.6,2.9.8,5.6,3.2,7.1-.6,5.8,3.5,11.1,9.7,12.1,3.6.6,7.1-.5,9.7-2.5.9.4,1.9.7,2.9.9,4.1.7,8.2-.8,10.8-3.6,1.7,1.5,3.8,2.5,6.3,2.9,6.7,1.1,13.2-3.3,14.5-9.7.1-.5.1-1,.2-1.6,4-1.1,7.2-4.3,8-8.5.8-4.3-1.1-8.4-4.7-10.6,4.2,2.4,6.7,7.4,5.9,12.5-.8,4.7-4.1,8.2-8.2,9.4ZM156.8,41.8c1.4-8.6,9.4-14.3,17.7-12.8,2.5.5,4.8,1.6,6.7,3.1-1.8-1.2-3.9-2.1-6.2-2.5-8.1-1.3-15.8,3.9-17.3,11.6,0,.3,0,.6-.1.9-.3,0-.6,0-.9,0,0-.1,0-.2,0-.3ZM191.7,28.2c3.3.6,5.9,2.9,7.1,5.9,0,0-.2,0-.3.1-1-2.9-3.5-5.1-6.9-5.7-3.8-.6-7.5,1.2-9.3,4.2,0,0,0,0-.1-.1,1.9-3.3,5.6-5.2,9.6-4.5Z"/>
      </g>
      <g id="Layer_1-2" data-name="Layer_1">
        <g>
          <path class="cls-1" d="M26.5,49.6c-1.3-1-1.4-4.2-1.4-6.9,0-3.2.1-3.9.1-6.7v-.9c-.2-3.1-2.8-2.4-2.8-4.3s2.4-1.5,2.9-3.3c.2-.7.2-2,.6-3.6.8-3.9,2.7-6.9,5.5-9,1.5-1.1,2.9-1.6,4.3-1.6,2.4,0,4.4,1.1,4.4,2.4s-1.3,2.1-2.6,2.1c-2.2,0-4.9,5-4.9,9s.2,1.3.5,1.3c.1,0,.6,0,1.1,0,1.4,0,4.5,0,4.5,2s-1.7,2.1-4.2,2.1-2.3.5-2.3,1.8l.2,8.5c0,2.7.2,3.8.2,4.4,0,2-1.4,3.1-3.9,3.1-1,0-1.7-.2-2.2-.5Z"/>
          <path class="cls-1" d="M42.4,48.9c-3.5-.7-5.2-3-5.2-7s1.6-9.9,3.8-13.7c1.3-2.3,2.4-3,4.9-3s2.1.3,3,1.1c.9.9,1.9,1.3,2.9,1.8,3,1.5,4.2,3.3,4.2,6.5,0,5.7-3.5,11.3-8.6,13.5-1.1.5-2.9,1-3.7,1-.3,0-.8,0-1.2-.2ZM47.6,39.3c.8-1.6,1.2-3.3,1.2-4.7s-.6-3.1-1.4-3.1-.6.4-1.2,1.9c-1.4,3.7-1.6,5.7-1.7,8.2,0,.7,0,1.4.5,1.4.5,0,1.9-1.9,2.7-3.7Z"/>
          <path class="cls-1" d="M57.9,44.6c-.2-1.4-.2-2.8-.2-4.3,0-2.9,0-5.8,0-7.7,0-2.3,0-3.7.1-4.6.3-1.9,1.6-2.9,4.1-2.9s2.2.6,3.7,2.1c1.7-1.4,2.7-1.9,3.9-1.9,2,0,3.7,1,3.7,2s-.3.8-1.3,2.1c-3.5,4.5-5.3,8.5-5.9,12.7-.6,3.9.1,6.7-4.2,6.7-2.8,0-3.8-1-4.1-4.3Z"/>
          <path class="cls-1" d="M93.6,46.5v-1c0-3.9,0-5.1,0-8.8s-.1-4.3-.5-5.7c-.2-.7-.4-1-.8-1.3-.7.3-1.8.5-1.8,2s.2,1.9.4,4.6l.4,4.9c.2,2.6.4,4.1.4,4.7,0,1.6-1.5,2.7-3.6,2.7s-3.4-1.6-3.8-4.5c-.2-1.7-.5-6-.5-7.1-.2-3.6-.2-6.3-1.2-6.3s-.7,1-.7,2.4c0,4,.2,6.4.2,11.8s0,2.4-1.1,2.9c-.6.3-1.6.5-2.5.5s-2.3-.4-2.9-.9c-.6-.5-.7-1.2-.7-1.8v-.5c0-9.9-.5-17.2-.5-17.9,0-1.2,1.3-2.4,3.8-2.4s2.7.5,3.1,1.3c.4,1.1.7,1.2,1,1.2,1-1.3,2.5-1.8,3.3-1.8,2.1,0,3.1,1.9,3.9,1.9s2.6-2,3.6-2c4.5,0,6.5,1.7,7.2,6.2.3,2,.3,4.1.3,6.1,0,3,0,5.9,0,6.7,0,3.5-.9,4.8-3.4,4.8-2.4,0-3.6-.9-3.7-2.8Z"/>
          <path class="cls-1" d="M103.2,41.9c0-8.4,5.4-16.8,10.8-16.8s5.4,1.1,5.4,2.3-1.5,2.1-3,2.1h-.6c-2.1,0-5.5,7.8-5.5,12.5s0,1.3.6,1.3c1.4,0,4.6-5.2,8.3-5.2s3.4.8,3.4,1.7-3,4.4-6.4,6.7c-2.2,1.5-4.8,2.5-6.9,2.5-3.8,0-6-2.6-6-6.9Z"/>
          <path class="cls-1" d="M124.4,47.8c-.4-1.3-.8-5.9-.8-8.7v-14.3c0-4,.2-8.9.5-10,.3-.8,2.1-1.5,3.6-1.5s1.9.3,2.5.7c.7.4.8,1.1.8,4.1s-.3,10.4-.3,15.7.2,7.8.7,13.1c0,.4.1.8.1,1.1,0,1.3-1.5,2.2-3.5,2.2-1.9,0-3.2-.9-3.6-2.4Z"/>
          <path class="cls-1" d="M138.1,48.9c-3.5-.7-5.2-3-5.2-7s1.6-9.9,3.8-13.7c1.3-2.3,2.4-3,4.9-3s2.1.3,3,1.1c.9.9,1.9,1.3,2.9,1.8,3,1.5,4.2,3.3,4.2,6.5,0,5.7-3.5,11.3-8.6,13.5-1.1.5-2.9,1-3.7,1-.3,0-.8,0-1.2-.2ZM143.3,39.3c.8-1.6,1.2-3.3,1.2-4.7s-.6-3.1-1.4-3.1-.6.4-1.2,1.9c-1.4,3.7-1.6,5.7-1.7,8.2,0,.7,0,1.4.5,1.4.5,0,1.9-1.9,2.7-3.7Z"/>
          <path class="cls-1" d="M164.4,45.6c-.8,0-2.1,1.6-3,1.6-5.5,0-7.8-3.5-7.8-12.2s0-4,0-4.4c0-2.4,1.3-5.3,3.6-5.3s1.7.2,2.3.4c1.3.5,1.4,3.1,1.4,4.3,0,1.8,0,3.1,0,5.1,0,4.4.8,7.7,1.7,7.7s1-.4,1.4-.6c0-1.1.1-2.2.1-5v-6.9c0-3.7.2-4.3,1.5-4.8.7-.3,1.4-.4,2.2-.4,3.8,0,3.9,3.6,3.9,4.4h0c0,0-.4,3.5-.4,7.8s.1,4.7.4,7.1v.3c0,1.5-1.4,2.7-3.8,2.7-1.6,0-2.7-.3-3.4-1.9Z"/>
          <path class="cls-1" d="M185.1,44.4c-.9,0-3.9,3.7-7.1,3.7s-4.7-1.8-4.7-5.1,3.4-11.3,7.5-15c1.3-1.2,2.3-1.6,3.1-2.1,1.2-.7,1.4-.9,1.5-1.9.2-1.5.3-3.2.4-5,.1-1.7,0-5.6,1.2-7,.5-.6,1.4-.9,2.6-.9,2.4,0,3.9,1,3.9,2.4s-.1,1.3-.4,3.6c-.5,4.9-.7,11.4-.7,17.7s0,4.4.1,6c0,1.5.2,2.9.2,4.4s-.2,1.7-1.1,2.2c-.6.4-1.4.5-2.4.5-3.7,0-3.2-3.7-4.1-3.7ZM184.9,38.8c.2-.5.3-.9.3-1.5s0-1,0-1.9v-2.9c0-.6,0-1-.3-1-1.1,0-3.9,6.2-3.9,8.6s.1.7.3.7c.4,0,3.3-1.5,3.8-1.9Z"/>
        </g>
      </g>
    </g>
  </g>
</svg>